<svg width="1920" height="1080" viewBox="0 0 1920 1080" fill="none" xmlns="http://www.w3.org/2000/svg">
  <!-- 深色背景 -->
  <rect width="1920" height="1080" fill="#0F0B24"/>
  
  <!-- 星空背景 -->
  <g>
    <circle cx="500" cy="200" r="1.5" fill="#F5F5F7" opacity="0.8"/>
    <circle cx="700" cy="300" r="1" fill="#F5F5F7" opacity="0.6"/>
    <circle cx="900" cy="150" r="2" fill="#F5F5F7" opacity="0.7"/>
    <circle cx="1200" cy="400" r="1.5" fill="#F5F5F7" opacity="0.5"/>
    <circle cx="1400" cy="200" r="1" fill="#F5F5F7" opacity="0.7"/>
    <circle cx="300" cy="600" r="1.5" fill="#F5F5F7" opacity="0.6"/>
    <circle cx="600" cy="800" r="1" fill="#F5F5F7" opacity="0.8"/>
    <circle cx="800" cy="700" r="2" fill="#F5F5F7" opacity="0.5"/>
    <circle cx="1100" cy="850" r="1.5" fill="#F5F5F7" opacity="0.7"/>
    <circle cx="1300" cy="650" r="1" fill="#F5F5F7" opacity="0.6"/>
    <circle cx="1600" cy="500" r="1.5" fill="#F5F5F7" opacity="0.8"/>
    <circle cx="450" cy="220" r="2" fill="#F5F5F7" opacity="0.7"/>
    <circle cx="750" cy="350" r="1.8" fill="#F5F5F7" opacity="0.6"/>
    <circle cx="1250" cy="450" r="2.5" fill="#F5F5F7" opacity="0.7"/>
    <circle cx="1450" cy="250" r="2" fill="#F5F5F7" opacity="0.8"/>
    <circle cx="350" cy="650" r="2.2" fill="#F5F5F7" opacity="0.6"/>
    <circle cx="850" cy="750" r="3" fill="#F5F5F7" opacity="0.7"/>
    <circle cx="1350" cy="700" r="2" fill="#F5F5F7" opacity="0.6"/>
  </g>
  
  <!-- 蓝色星云 -->
  <radialGradient id="blueNebula" cx="960" cy="540" r="600" gradientUnits="userSpaceOnUse">
    <stop offset="0" stop-color="#00B4D8" stop-opacity="0.3"/>
    <stop offset="0.6" stop-color="#0F0B24" stop-opacity="0"/>
  </radialGradient>
  <ellipse cx="960" cy="540" rx="600" ry="500" fill="url(#blueNebula)"/>
  
  <!-- 外圈 -->
  <circle cx="960" cy="540" r="420" stroke="#F5F5F7" stroke-opacity="0.2" stroke-width="1" fill="none"/>
  <circle cx="960" cy="540" r="410" stroke="#F5F5F7" stroke-opacity="0.1" stroke-width="0.5" fill="none"/>
  
  <!-- 外层九角星 -->
  <g stroke="#C6A776" stroke-width="1" stroke-opacity="0.8" fill="none">
    <path d="M960 120 L1033 361 L1278 361 L1083 508 L1155 750 L960 603 L765 750 L837 508 L642 361 L887 361 Z"/>
  </g>
  
  <!-- 中层八角星 -->
  <g stroke="#F5F5F7" stroke-width="1" stroke-opacity="0.6" fill="none">
    <path d="M960 180 L1080 370 L1320 370 L1130 490 L1250 730 L960 610 L670 730 L790 490 L600 370 L840 370 Z"/>
  </g>
  
  <!-- 中层六角星 -->
  <g stroke="#00B894" stroke-width="1" stroke-opacity="0.7" fill="none">
    <path d="M960 240 L1100 380 L1100 620 L960 760 L820 620 L820 380 Z"/>
  </g>
  
  <!-- 内层八角星 -->
  <g stroke="#F5F5F7" stroke-width="1.5" stroke-opacity="0.7" fill="none">
    <path d="M960 300 L1040 400 L1180 400 L1080 480 L1140 620 L960 540 L780 620 L840 480 L740 400 L880 400 Z"/>
  </g>
  
  <!-- 内层六角星 -->
  <g stroke="#C6A776" stroke-width="1.5" stroke-opacity="0.8" fill="none">
    <path d="M960 360 L1020 420 L1020 540 L960 600 L900 540 L900 420 Z"/>
  </g>
  
  <!-- 中心圆 -->
  <circle cx="960" cy="540" r="50" stroke="#C6A776" stroke-width="2" stroke-opacity="0.9" fill="none"/>
  <circle cx="960" cy="540" r="30" stroke="#F5F5F7" stroke-width="1" stroke-opacity="0.8" fill="none"/>
  <circle cx="960" cy="540" r="15" fill="#C6A776" fill-opacity="0.6"/>
  
  <!-- 光芒 -->
  <defs>
    <radialGradient id="centerGlow" cx="960" cy="540" r="120" gradientUnits="userSpaceOnUse">
      <stop offset="0" stop-color="#C6A776" stop-opacity="0.4"/>
      <stop offset="1" stop-color="#C6A776" stop-opacity="0"/>
    </radialGradient>
  </defs>
  <circle cx="960" cy="540" r="120" fill="url(#centerGlow)"/>
</svg> 