<svg width="24" height="11" viewBox="0 0 24 11" fill="none" xmlns="http://www.w3.org/2000/svg">
<path d="M18.288 0.863999C19.088 0.863999 19.872 1.056 20.64 1.44C21.408 1.808 22.04 2.368 22.536 3.12C23.048 3.856 23.304 4.784 23.304 5.904C23.304 7.008 23.048 7.936 22.536 8.688C22.04 9.44 21.408 10 20.64 10.368C19.872 10.736 19.088 10.92 18.288 10.92C17.376 10.92 16.544 10.784 15.792 10.512C15.04 10.224 14.352 9.84 13.728 9.36C13.104 8.88 12.528 8.352 12 7.776C11.488 8.352 10.92 8.88 10.296 9.36C9.672 9.84 8.984 10.224 8.232 10.512C7.48 10.784 6.64 10.92 5.712 10.92C4.928 10.92 4.144 10.736 3.36 10.368C2.576 10 1.928 9.44 1.416 8.688C0.92 7.936 0.672 7.008 0.672 5.904C0.672 4.784 0.92 3.856 1.416 3.12C1.928 2.368 2.576 1.808 3.36 1.44C4.144 1.056 4.928 0.863999 5.712 0.863999C6.64 0.863999 7.48 1.008 8.232 1.296C8.984 1.584 9.672 1.968 10.296 2.448C10.92 2.912 11.488 3.44 12 4.032C12.528 3.44 13.104 2.912 13.728 2.448C14.352 1.968 15.04 1.584 15.792 1.296C16.544 1.008 17.376 0.863999 18.288 0.863999ZM5.664 8.496C6.688 8.496 7.576 8.248 8.328 7.752C9.096 7.256 9.792 6.64 10.416 5.904C9.792 5.168 9.096 4.552 8.328 4.056C7.576 3.56 6.688 3.312 5.664 3.312C5.2 3.312 4.768 3.416 4.368 3.624C3.984 3.832 3.68 4.136 3.456 4.536C3.232 4.92 3.12 5.376 3.12 5.904C3.12 6.432 3.232 6.896 3.456 7.296C3.68 7.68 3.984 7.976 4.368 8.184C4.768 8.392 5.2 8.496 5.664 8.496ZM18.336 8.496C18.816 8.496 19.24 8.392 19.608 8.184C19.992 7.976 20.296 7.68 20.52 7.296C20.76 6.896 20.88 6.432 20.88 5.904C20.88 5.376 20.76 4.92 20.52 4.536C20.296 4.136 19.992 3.832 19.608 3.624C19.24 3.416 18.816 3.312 18.336 3.312C17.312 3.312 16.416 3.56 15.648 4.056C14.896 4.552 14.216 5.168 13.608 5.904C14.216 6.64 14.896 7.256 15.648 7.752C16.416 8.248 17.312 8.496 18.336 8.496Z" fill="white"/>
<path d="M18.288 0.863999C19.088 0.863999 19.872 1.056 20.64 1.44C21.408 1.808 22.04 2.368 22.536 3.12C23.048 3.856 23.304 4.784 23.304 5.904C23.304 7.008 23.048 7.936 22.536 8.688C22.04 9.44 21.408 10 20.64 10.368C19.872 10.736 19.088 10.92 18.288 10.92C17.376 10.92 16.544 10.784 15.792 10.512C15.04 10.224 14.352 9.84 13.728 9.36C13.104 8.88 12.528 8.352 12 7.776C11.488 8.352 10.92 8.88 10.296 9.36C9.672 9.84 8.984 10.224 8.232 10.512C7.48 10.784 6.64 10.92 5.712 10.92C4.928 10.92 4.144 10.736 3.36 10.368C2.576 10 1.928 9.44 1.416 8.688C0.92 7.936 0.672 7.008 0.672 5.904C0.672 4.784 0.92 3.856 1.416 3.12C1.928 2.368 2.576 1.808 3.36 1.44C4.144 1.056 4.928 0.863999 5.712 0.863999C6.64 0.863999 7.48 1.008 8.232 1.296C8.984 1.584 9.672 1.968 10.296 2.448C10.92 2.912 11.488 3.44 12 4.032C12.528 3.44 13.104 2.912 13.728 2.448C14.352 1.968 15.04 1.584 15.792 1.296C16.544 1.008 17.376 0.863999 18.288 0.863999ZM5.664 8.496C6.688 8.496 7.576 8.248 8.328 7.752C9.096 7.256 9.792 6.64 10.416 5.904C9.792 5.168 9.096 4.552 8.328 4.056C7.576 3.56 6.688 3.312 5.664 3.312C5.2 3.312 4.768 3.416 4.368 3.624C3.984 3.832 3.68 4.136 3.456 4.536C3.232 4.92 3.12 5.376 3.12 5.904C3.12 6.432 3.232 6.896 3.456 7.296C3.68 7.68 3.984 7.976 4.368 8.184C4.768 8.392 5.2 8.496 5.664 8.496ZM18.336 8.496C18.816 8.496 19.24 8.392 19.608 8.184C19.992 7.976 20.296 7.68 20.52 7.296C20.76 6.896 20.88 6.432 20.88 5.904C20.88 5.376 20.76 4.92 20.52 4.536C20.296 4.136 19.992 3.832 19.608 3.624C19.24 3.416 18.816 3.312 18.336 3.312C17.312 3.312 16.416 3.56 15.648 4.056C14.896 4.552 14.216 5.168 13.608 5.904C14.216 6.64 14.896 7.256 15.648 7.752C16.416 8.248 17.312 8.496 18.336 8.496Z" fill="#121212"/>
</svg>
