<svg width="24" height="24" viewBox="0 0 24 24" fill="none" xmlns="http://www.w3.org/2000/svg">
  <path d="M18 8C20.2091 8 22 6.20914 22 4C22 1.79086 20.2091 0 18 0C15.7909 0 14 1.79086 14 4C14 6.20914 15.7909 8 18 8Z" stroke="#C6A776" stroke-width="2" stroke-linecap="round" stroke-linejoin="round"/>
  <path d="M6 15C8.20914 15 10 13.2091 10 11C10 8.79086 8.20914 7 6 7C3.79086 7 2 8.79086 2 11C2 13.2091 3.79086 15 6 15Z" stroke="#C6A776" stroke-width="2" stroke-linecap="round" stroke-linejoin="round"/>
  <path d="M18 22C20.2091 22 22 20.2091 22 18C22 15.7909 20.2091 14 18 14C15.7909 14 14 15.7909 14 18C14 20.2091 15.7909 22 18 22Z" stroke="#C6A776" stroke-width="2" stroke-linecap="round" stroke-linejoin="round"/>
  <path d="M9.5 9L14.5 6" stroke="#C6A776" stroke-width="2" stroke-linecap="round" stroke-linejoin="round"/>
  <path d="M9.5 13L14.5 16" stroke="#C6A776" stroke-width="2" stroke-linecap="round" stroke-linejoin="round"/>
</svg> 