<svg width="24" height="24" viewBox="0 0 24 24" fill="none" xmlns="http://www.w3.org/2000/svg">
  <path d="M9.5 8.5C9.5 6.01472 11.5147 4 14 4C16.4853 4 18.5 6.01472 18.5 8.5C18.5 10.9853 16.4853 13 14 13C13.1716 13 12.3466 12.7984 11.6346 12.4312L9.5 13L10.0695 11.1345C9.71967 10.3699 9.5 9.4513 9.5 8.5Z" stroke="#2A2356" stroke-width="2" stroke-linejoin="round"/>
  <path d="M6.5 17.5C6.5 15.0147 8.51472 13 11 13C13.4853 13 15.5 15.0147 15.5 17.5C15.5 19.9853 13.4853 22 11 22C10.1716 22 9.3466 21.7984 8.63463 21.4312L6.5 22L7.0695 20.1345C6.71967 19.3699 6.5 18.4513 6.5 17.5Z" stroke="#2A2356" stroke-width="2" stroke-linejoin="round"/>
</svg> 